<?xml version="1.0" encoding="UTF-8" standalone="no"?><svg xmlns="http://www.w3.org/2000/svg" xmlns:xlink="http://www.w3.org/1999/xlink" contentScriptType="application/ecmascript" contentStyleType="text/css" height="359px" preserveAspectRatio="none" style="width:277px;height:359px;" version="1.1" viewBox="0 0 277 359" width="277px" zoomAndPan="magnify"><defs><filter height="300%" id="f14b3s2jmpyu90" width="300%" x="-1" y="-1"><feGaussianBlur result="blurOut" stdDeviation="2.0"/><feColorMatrix in="blurOut" result="blurOut2" type="matrix" values="0 0 0 0 0 0 0 0 0 0 0 0 0 0 0 0 0 0 .4 0"/><feOffset dx="4.0" dy="4.0" in="blurOut2" result="blurOut3"/><feBlend in="SourceGraphic" in2="blurOut3" mode="normal"/></filter></defs><g><!--MD5=[90f66edba3ee2ef2943b92b287a7e5d6]
class Bird--><rect fill="#FEFECE" filter="url(#f14b3s2jmpyu90)" height="86.4141" id="Bird" style="stroke: #A80036; stroke-width: 1.5;" width="260" x="6" y="116"/><ellipse cx="119.75" cy="132" fill="#ADD1B2" rx="11" ry="11" style="stroke: #A80036; stroke-width: 1.0;"/><path d="M122.7188,137.6406 Q122.1406,137.9375 121.5,138.0781 Q120.8594,138.2344 120.1563,138.2344 Q117.6563,138.2344 116.3281,136.5938 Q115.0156,134.9375 115.0156,131.8125 Q115.0156,128.6875 116.3281,127.0313 Q117.6563,125.375 120.1563,125.375 Q120.8594,125.375 121.5,125.5313 Q122.1563,125.6875 122.7188,125.9844 L122.7188,128.7031 Q122.0938,128.125 121.5,127.8594 Q120.9063,127.5781 120.2813,127.5781 Q118.9375,127.5781 118.25,128.6563 Q117.5625,129.7188 117.5625,131.8125 Q117.5625,133.9063 118.25,134.9844 Q118.9375,136.0469 120.2813,136.0469 Q120.9063,136.0469 121.5,135.7813 Q122.0938,135.5 122.7188,134.9219 L122.7188,137.6406 Z "/><text fill="#000000" font-family="sans-serif" font-size="12" lengthAdjust="spacingAndGlyphs" textLength="24" x="140.25" y="136.1543">Bird</text><line style="stroke: #A80036; stroke-width: 1.5;" x1="7" x2="265" y1="148" y2="148"/><ellipse cx="17" cy="159" fill="none" rx="3" ry="3" style="stroke: #038048; stroke-width: 1.0;"/><text fill="#000000" font-family="sans-serif" font-size="11" lengthAdjust="spacingAndGlyphs" textLength="177" x="26" y="162.2104">«event» OnDied : EventHandler</text><ellipse cx="17" cy="171.8047" fill="none" rx="3" ry="3" style="stroke: #038048; stroke-width: 1.0;"/><text fill="#000000" font-family="sans-serif" font-size="11" lengthAdjust="spacingAndGlyphs" textLength="234" x="26" y="175.0151">«event» OnStartedPlaying : EventHandler</text><line style="stroke: #A80036; stroke-width: 1.5;" x1="7" x2="265" y1="181.6094" y2="181.6094"/><ellipse cx="17" cy="192.6094" fill="#84BE84" rx="3" ry="3" style="stroke: #038048; stroke-width: 1.0;"/><text fill="#000000" font-family="sans-serif" font-size="11" lengthAdjust="spacingAndGlyphs" text-decoration="underline" textLength="111" x="26" y="195.8198">GetInstance() : Bird</text><!--MD5=[60d6b92408f98aed8df94d5c6e04aa63]
class State--><rect fill="#FEFECE" filter="url(#f14b3s2jmpyu90)" height="86.4141" id="State" style="stroke: #A80036; stroke-width: 1.5;" width="98" x="87" y="262"/><ellipse cx="116.4" cy="278" fill="#EB937F" rx="11" ry="11" style="stroke: #A80036; stroke-width: 1.0;"/><path d="M120.5094,284 L112.7906,284 L112.7906,271.6094 L120.5094,271.6094 L120.5094,273.7656 L115.2438,273.7656 L115.2438,276.4375 L120.0094,276.4375 L120.0094,278.5938 L115.2438,278.5938 L115.2438,281.8438 L120.5094,281.8438 L120.5094,284 Z "/><text fill="#000000" font-family="sans-serif" font-size="12" lengthAdjust="spacingAndGlyphs" textLength="34" x="133.6" y="282.1543">State</text><line style="stroke: #A80036; stroke-width: 1.5;" x1="88" x2="184" y1="294" y2="294"/><text fill="#000000" font-family="sans-serif" font-size="11" lengthAdjust="spacingAndGlyphs" textLength="86" x="93" y="308.2104">WaitingToStart,</text><text fill="#000000" font-family="sans-serif" font-size="11" lengthAdjust="spacingAndGlyphs" textLength="44" x="93" y="321.0151">Playing,</text><text fill="#000000" font-family="sans-serif" font-size="11" lengthAdjust="spacingAndGlyphs" textLength="33" x="93" y="333.8198">Dead,</text><line style="stroke: #A80036; stroke-width: 1.5;" x1="88" x2="184" y1="340.4141" y2="340.4141"/><!--MD5=[83b3cf3d23d77c6f1e1b5291a241bc2a]
class MonoBehaviour--><rect fill="#FEFECE" filter="url(#f14b3s2jmpyu90)" height="48" id="MonoBehaviour" style="stroke: #A80036; stroke-width: 1.5;" width="128" x="72" y="8"/><ellipse cx="87" cy="24" fill="#ADD1B2" rx="11" ry="11" style="stroke: #A80036; stroke-width: 1.0;"/><path d="M89.9688,29.6406 Q89.3906,29.9375 88.75,30.0781 Q88.1094,30.2344 87.4063,30.2344 Q84.9063,30.2344 83.5781,28.5938 Q82.2656,26.9375 82.2656,23.8125 Q82.2656,20.6875 83.5781,19.0313 Q84.9063,17.375 87.4063,17.375 Q88.1094,17.375 88.75,17.5313 Q89.4063,17.6875 89.9688,17.9844 L89.9688,20.7031 Q89.3438,20.125 88.75,19.8594 Q88.1563,19.5781 87.5313,19.5781 Q86.1875,19.5781 85.5,20.6563 Q84.8125,21.7188 84.8125,23.8125 Q84.8125,25.9063 85.5,26.9844 Q86.1875,28.0469 87.5313,28.0469 Q88.1563,28.0469 88.75,27.7813 Q89.3438,27.5 89.9688,26.9219 L89.9688,29.6406 Z "/><text fill="#000000" font-family="sans-serif" font-size="12" lengthAdjust="spacingAndGlyphs" textLength="96" x="101" y="28.1543">MonoBehaviour</text><line style="stroke: #A80036; stroke-width: 1.5;" x1="73" x2="199" y1="40" y2="40"/><line style="stroke: #A80036; stroke-width: 1.5;" x1="73" x2="199" y1="48" y2="48"/><!--MD5=[765aa1def855e544bf24f9e78be7dc74]
reverse link MonoBehaviour to Bird--><path d="M136,76.27 C136,89.12 136,103.17 136,115.94 " fill="none" id="MonoBehaviour&lt;-Bird" style="stroke: #A80036; stroke-width: 1.0;"/><polygon fill="none" points="129,76.22,136,56.22,143,76.22,129,76.22" style="stroke: #A80036; stroke-width: 1.0;"/><!--MD5=[12861da498f2146654bad4ff75bc2da3]
reverse link Bird to State--><path d="M136,217.09 C136,231.96 136,247.71 136,261.66 " fill="none" id="Bird&lt;-State" style="stroke: #A80036; stroke-width: 1.0;"/><ellipse cx="136" cy="210.04" fill="#FFFFFF" rx="8" ry="8" style="stroke: #A80036; stroke-width: 1.0;"/><line style="stroke: #A80036; stroke-width: 1.0;" x1="136" x2="136" y1="218.04" y2="202.04"/><line style="stroke: #A80036; stroke-width: 1.0;" x1="128" x2="144" y1="210.04" y2="210.04"/><!--MD5=[d0aac35b5711d71f9c6f3b45230a2da1]
@startuml
class Bird {
    + {static} GetInstance() : Bird
    +  <<event>> OnDied : EventHandler 
    +  <<event>> OnStartedPlaying : EventHandler 
}
enum State {
    WaitingToStart,
    Playing,
    Dead,
}
MonoBehaviour <|- - Bird
Bird +- - State
@enduml

PlantUML version 1.2020.02(Sun Mar 01 10:22:07 GMT 2020)
(GPL source distribution)
Java Runtime: OpenJDK Runtime Environment
JVM: OpenJDK 64-Bit Server VM
Java Version: 11.0.9+11-Ubuntu-0ubuntu1
Operating System: Linux
Default Encoding: ANSI_X3.4-1968
Language: en
Country: US
--></g></svg>