<?xml version="1.0" encoding="UTF-8" standalone="no"?><svg xmlns="http://www.w3.org/2000/svg" xmlns:xlink="http://www.w3.org/1999/xlink" contentScriptType="application/ecmascript" contentStyleType="text/css" height="404px" preserveAspectRatio="none" style="width:460px;height:404px;" version="1.1" viewBox="0 0 460 404" width="460px" zoomAndPan="magnify"><defs><filter height="300%" id="fmfupoi7z77p2" width="300%" x="-1" y="-1"><feGaussianBlur result="blurOut" stdDeviation="2.0"/><feColorMatrix in="blurOut" result="blurOut2" type="matrix" values="0 0 0 0 0 0 0 0 0 0 0 0 0 0 0 0 0 0 .4 0"/><feOffset dx="4.0" dy="4.0" in="blurOut2" result="blurOut3"/><feBlend in="SourceGraphic" in2="blurOut3" mode="normal"/></filter></defs><g><!--MD5=[1a200f64f64fca5b367b9b1f8b38f7db]
class GameAssets--><rect fill="#FEFECE" filter="url(#fmfupoi7z77p2)" height="60.8047" id="GameAssets" style="stroke: #A80036; stroke-width: 1.5;" width="187" x="236.5" y="116"/><ellipse cx="286.75" cy="132" fill="#ADD1B2" rx="11" ry="11" style="stroke: #A80036; stroke-width: 1.0;"/><path d="M289.7188,137.6406 Q289.1406,137.9375 288.5,138.0781 Q287.8594,138.2344 287.1563,138.2344 Q284.6563,138.2344 283.3281,136.5938 Q282.0156,134.9375 282.0156,131.8125 Q282.0156,128.6875 283.3281,127.0313 Q284.6563,125.375 287.1563,125.375 Q287.8594,125.375 288.5,125.5313 Q289.1563,125.6875 289.7188,125.9844 L289.7188,128.7031 Q289.0938,128.125 288.5,127.8594 Q287.9063,127.5781 287.2813,127.5781 Q285.9375,127.5781 285.25,128.6563 Q284.5625,129.7188 284.5625,131.8125 Q284.5625,133.9063 285.25,134.9844 Q285.9375,136.0469 287.2813,136.0469 Q287.9063,136.0469 288.5,135.7813 Q289.0938,135.5 289.7188,134.9219 L289.7188,137.6406 Z "/><text fill="#000000" font-family="sans-serif" font-size="12" lengthAdjust="spacingAndGlyphs" textLength="78" x="307.25" y="136.1543">GameAssets</text><line style="stroke: #A80036; stroke-width: 1.5;" x1="237.5" x2="422.5" y1="148" y2="148"/><line style="stroke: #A80036; stroke-width: 1.5;" x1="237.5" x2="422.5" y1="156" y2="156"/><ellipse cx="247.5" cy="167" fill="#84BE84" rx="3" ry="3" style="stroke: #038048; stroke-width: 1.0;"/><text fill="#000000" font-family="sans-serif" font-size="11" lengthAdjust="spacingAndGlyphs" text-decoration="underline" textLength="161" x="256.5" y="170.2104">GetInstance() : GameAssets</text><!--MD5=[349a57968d8510c79f130b51b7fa813c]
class SoundAudioClip--><rect fill="#FEFECE" filter="url(#fmfupoi7z77p2)" height="48" id="SoundAudioClip" style="stroke: #A80036; stroke-width: 1.5;" width="129" x="14.5" y="237"/><ellipse cx="29.5" cy="253" fill="#ADD1B2" rx="11" ry="11" style="stroke: #A80036; stroke-width: 1.0;"/><path d="M32.4688,258.6406 Q31.8906,258.9375 31.25,259.0781 Q30.6094,259.2344 29.9063,259.2344 Q27.4063,259.2344 26.0781,257.5938 Q24.7656,255.9375 24.7656,252.8125 Q24.7656,249.6875 26.0781,248.0313 Q27.4063,246.375 29.9063,246.375 Q30.6094,246.375 31.25,246.5313 Q31.9063,246.6875 32.4688,246.9844 L32.4688,249.7031 Q31.8438,249.125 31.25,248.8594 Q30.6563,248.5781 30.0313,248.5781 Q28.6875,248.5781 28,249.6563 Q27.3125,250.7188 27.3125,252.8125 Q27.3125,254.9063 28,255.9844 Q28.6875,257.0469 30.0313,257.0469 Q30.6563,257.0469 31.25,256.7813 Q31.8438,256.5 32.4688,255.9219 L32.4688,258.6406 Z "/><text fill="#000000" font-family="sans-serif" font-size="12" lengthAdjust="spacingAndGlyphs" textLength="97" x="43.5" y="257.1543">SoundAudioClip</text><line style="stroke: #A80036; stroke-width: 1.5;" x1="15.5" x2="142.5" y1="269" y2="269"/><line style="stroke: #A80036; stroke-width: 1.5;" x1="15.5" x2="142.5" y1="277" y2="277"/><!--MD5=[83b3cf3d23d77c6f1e1b5291a241bc2a]
class MonoBehaviour--><rect fill="#FEFECE" filter="url(#fmfupoi7z77p2)" height="48" id="MonoBehaviour" style="stroke: #A80036; stroke-width: 1.5;" width="128" x="266" y="8"/><ellipse cx="281" cy="24" fill="#ADD1B2" rx="11" ry="11" style="stroke: #A80036; stroke-width: 1.0;"/><path d="M283.9688,29.6406 Q283.3906,29.9375 282.75,30.0781 Q282.1094,30.2344 281.4063,30.2344 Q278.9063,30.2344 277.5781,28.5938 Q276.2656,26.9375 276.2656,23.8125 Q276.2656,20.6875 277.5781,19.0313 Q278.9063,17.375 281.4063,17.375 Q282.1094,17.375 282.75,17.5313 Q283.4063,17.6875 283.9688,17.9844 L283.9688,20.7031 Q283.3438,20.125 282.75,19.8594 Q282.1563,19.5781 281.5313,19.5781 Q280.1875,19.5781 279.5,20.6563 Q278.8125,21.7188 278.8125,23.8125 Q278.8125,25.9063 279.5,26.9844 Q280.1875,28.0469 281.5313,28.0469 Q282.1563,28.0469 282.75,27.7813 Q283.3438,27.5 283.9688,26.9219 L283.9688,29.6406 Z "/><text fill="#000000" font-family="sans-serif" font-size="12" lengthAdjust="spacingAndGlyphs" textLength="96" x="295" y="28.1543">MonoBehaviour</text><line style="stroke: #A80036; stroke-width: 1.5;" x1="267" x2="393" y1="40" y2="40"/><line style="stroke: #A80036; stroke-width: 1.5;" x1="267" x2="393" y1="48" y2="48"/><!--MD5=[85c2ed8dbf494cb60783de624603a7dd]
class Sprite--><rect fill="#FEFECE" filter="url(#fmfupoi7z77p2)" height="48" id="Sprite" style="stroke: #A80036; stroke-width: 1.5;" width="69" x="178.5" y="237"/><ellipse cx="193.5" cy="253" fill="#ADD1B2" rx="11" ry="11" style="stroke: #A80036; stroke-width: 1.0;"/><path d="M196.4688,258.6406 Q195.8906,258.9375 195.25,259.0781 Q194.6094,259.2344 193.9063,259.2344 Q191.4063,259.2344 190.0781,257.5938 Q188.7656,255.9375 188.7656,252.8125 Q188.7656,249.6875 190.0781,248.0313 Q191.4063,246.375 193.9063,246.375 Q194.6094,246.375 195.25,246.5313 Q195.9063,246.6875 196.4688,246.9844 L196.4688,249.7031 Q195.8438,249.125 195.25,248.8594 Q194.6563,248.5781 194.0313,248.5781 Q192.6875,248.5781 192,249.6563 Q191.3125,250.7188 191.3125,252.8125 Q191.3125,254.9063 192,255.9844 Q192.6875,257.0469 194.0313,257.0469 Q194.6563,257.0469 195.25,256.7813 Q195.8438,256.5 196.4688,255.9219 L196.4688,258.6406 Z "/><text fill="#000000" font-family="sans-serif" font-size="12" lengthAdjust="spacingAndGlyphs" textLength="37" x="207.5" y="257.1543">Sprite</text><line style="stroke: #A80036; stroke-width: 1.5;" x1="179.5" x2="246.5" y1="269" y2="269"/><line style="stroke: #A80036; stroke-width: 1.5;" x1="179.5" x2="246.5" y1="277" y2="277"/><!--MD5=[004b1d6c4ca8aad4ba8b586a335ed4f3]
class Transform--><rect fill="#FEFECE" filter="url(#fmfupoi7z77p2)" height="48" id="Transform" style="stroke: #A80036; stroke-width: 1.5;" width="95" x="282.5" y="237"/><ellipse cx="297.5" cy="253" fill="#ADD1B2" rx="11" ry="11" style="stroke: #A80036; stroke-width: 1.0;"/><path d="M300.4688,258.6406 Q299.8906,258.9375 299.25,259.0781 Q298.6094,259.2344 297.9063,259.2344 Q295.4063,259.2344 294.0781,257.5938 Q292.7656,255.9375 292.7656,252.8125 Q292.7656,249.6875 294.0781,248.0313 Q295.4063,246.375 297.9063,246.375 Q298.6094,246.375 299.25,246.5313 Q299.9063,246.6875 300.4688,246.9844 L300.4688,249.7031 Q299.8438,249.125 299.25,248.8594 Q298.6563,248.5781 298.0313,248.5781 Q296.6875,248.5781 296,249.6563 Q295.3125,250.7188 295.3125,252.8125 Q295.3125,254.9063 296,255.9844 Q296.6875,257.0469 298.0313,257.0469 Q298.6563,257.0469 299.25,256.7813 Q299.8438,256.5 300.4688,255.9219 L300.4688,258.6406 Z "/><text fill="#000000" font-family="sans-serif" font-size="12" lengthAdjust="spacingAndGlyphs" textLength="63" x="311.5" y="257.1543">Transform</text><line style="stroke: #A80036; stroke-width: 1.5;" x1="283.5" x2="376.5" y1="269" y2="269"/><line style="stroke: #A80036; stroke-width: 1.5;" x1="283.5" x2="376.5" y1="277" y2="277"/><!--MD5=[4f535afd875b4e23cb909fc0a00dd274]
class AudioClip--><rect fill="#FEFECE" filter="url(#fmfupoi7z77p2)" height="48" id="AudioClip" style="stroke: #A80036; stroke-width: 1.5;" width="89" x="34.5" y="345"/><ellipse cx="49.5" cy="361" fill="#ADD1B2" rx="11" ry="11" style="stroke: #A80036; stroke-width: 1.0;"/><path d="M52.4688,366.6406 Q51.8906,366.9375 51.25,367.0781 Q50.6094,367.2344 49.9063,367.2344 Q47.4063,367.2344 46.0781,365.5938 Q44.7656,363.9375 44.7656,360.8125 Q44.7656,357.6875 46.0781,356.0313 Q47.4063,354.375 49.9063,354.375 Q50.6094,354.375 51.25,354.5313 Q51.9063,354.6875 52.4688,354.9844 L52.4688,357.7031 Q51.8438,357.125 51.25,356.8594 Q50.6563,356.5781 50.0313,356.5781 Q48.6875,356.5781 48,357.6563 Q47.3125,358.7188 47.3125,360.8125 Q47.3125,362.9063 48,363.9844 Q48.6875,365.0469 50.0313,365.0469 Q50.6563,365.0469 51.25,364.7813 Q51.8438,364.5 52.4688,363.9219 L52.4688,366.6406 Z "/><text fill="#000000" font-family="sans-serif" font-size="12" lengthAdjust="spacingAndGlyphs" textLength="57" x="63.5" y="365.1543">AudioClip</text><line style="stroke: #A80036; stroke-width: 1.5;" x1="35.5" x2="122.5" y1="377" y2="377"/><line style="stroke: #A80036; stroke-width: 1.5;" x1="35.5" x2="122.5" y1="385" y2="385"/><!--MD5=[0622267d3a00c8eeb73ee2ed855e9870]
reverse link MonoBehaviour to GameAssets--><path d="M330,76.11 C330,89.31 330,103.54 330,115.65 " fill="none" id="MonoBehaviour&lt;-GameAssets" style="stroke: #A80036; stroke-width: 1.0;"/><polygon fill="none" points="323,76.04,330,56.04,337,76.04,323,76.04" style="stroke: #A80036; stroke-width: 1.0;"/><!--MD5=[d227d1c883b6f94ab6d9a4a65d43a2a3]
link GameAssets to Sprite--><path d="M299.26,177.06 C281.26,194.37 258.69,216.07 241.15,232.93 " fill="none" id="GameAssets-&gt;Sprite" style="stroke: #A80036; stroke-width: 1.0;"/><polygon fill="#A80036" points="237.26,236.67,246.5221,233.3212,240.8664,233.2067,240.9809,227.551,237.26,236.67" style="stroke: #A80036; stroke-width: 1.0;"/><text fill="#000000" font-family="sans-serif" font-size="13" lengthAdjust="spacingAndGlyphs" textLength="99" x="150.2043" y="225.9682">pipeHeadSprite</text><!--MD5=[e9afc7a8956d012290c18eafda27b466]
link GameAssets to Transform--><path d="M271.78,177.06 C260.55,196.79 262.78,222.22 278.44,239.7 " fill="none" id="GameAssets-&gt;Transform" style="stroke: #A80036; stroke-width: 1.0;"/><polygon fill="#A80036" points="282.23,243.52,278.7316,234.3134,278.7088,239.9702,273.0519,239.9474,282.23,243.52" style="stroke: #A80036; stroke-width: 1.0;"/><text fill="#000000" font-family="sans-serif" font-size="13" lengthAdjust="spacingAndGlyphs" textLength="73" x="275.6089" y="225.9502">pfPipeHead</text><!--MD5=[e9afc7a8956d012290c18eafda27b466]
link GameAssets to Transform--><path d="M295.2,177.06 C289.46,193.93 289.6,214.98 295.62,231.65 " fill="none" id="GameAssets-&gt;Transform-1" style="stroke: #A80036; stroke-width: 1.0;"/><polygon fill="#A80036" points="297.68,236.67,297.9887,226.826,295.7935,232.0395,290.58,229.8444,297.68,236.67" style="stroke: #A80036; stroke-width: 1.0;"/><text fill="#000000" font-family="sans-serif" font-size="13" lengthAdjust="spacingAndGlyphs" textLength="71" x="238.5804" y="225.9328">pfPipeBody</text><!--MD5=[e9afc7a8956d012290c18eafda27b466]
link GameAssets to Transform--><path d="M318.62,177.06 C316.75,193.93 316.79,214.98 318.76,231.65 " fill="none" id="GameAssets-&gt;Transform-2" style="stroke: #A80036; stroke-width: 1.0;"/><polygon fill="#A80036" points="319.43,236.67,322.2126,227.2224,318.7729,231.7134,314.282,228.2737,319.43,236.67" style="stroke: #A80036; stroke-width: 1.0;"/><text fill="#000000" font-family="sans-serif" font-size="13" lengthAdjust="spacingAndGlyphs" textLength="59" x="324.0442" y="225.9945">pfGround</text><!--MD5=[e9afc7a8956d012290c18eafda27b466]
link GameAssets to Transform--><path d="M342.05,177.06 C344.03,193.93 343.98,214.98 341.9,231.65 " fill="none" id="GameAssets-&gt;Transform-3" style="stroke: #A80036; stroke-width: 1.0;"/><polygon fill="#A80036" points="341.19,236.67,346.4125,228.3198,341.8911,231.7194,338.4915,227.198,341.19,236.67" style="stroke: #A80036; stroke-width: 1.0;"/><text fill="#000000" font-family="sans-serif" font-size="13" lengthAdjust="spacingAndGlyphs" textLength="63" x="384.9473" y="231.5542">pfCloud_1</text><!--MD5=[e9afc7a8956d012290c18eafda27b466]
link GameAssets to Transform--><path d="M365.47,177.06 C371.32,193.93 371.17,214.98 365.04,231.65 " fill="none" id="GameAssets-&gt;Transform-4" style="stroke: #A80036; stroke-width: 1.0;"/><polygon fill="#A80036" points="362.94,236.67,370.1013,229.9086,364.8681,232.0567,362.72,226.8236,362.94,236.67" style="stroke: #A80036; stroke-width: 1.0;"/><text fill="#000000" font-family="sans-serif" font-size="13" lengthAdjust="spacingAndGlyphs" textLength="63" x="378.6473" y="225.9945">pfCloud_2</text><!--MD5=[e9afc7a8956d012290c18eafda27b466]
link GameAssets to Transform--><path d="M388.89,177.06 C400.38,197.03 397.94,222.85 381.56,240.34 " fill="none" id="GameAssets-&gt;Transform-5" style="stroke: #A80036; stroke-width: 1.0;"/><polygon fill="#A80036" points="377.61,244.15,386.8651,240.7822,381.2092,240.6793,381.3121,235.0234,377.61,244.15" style="stroke: #A80036; stroke-width: 1.0;"/><text fill="#000000" font-family="sans-serif" font-size="13" lengthAdjust="spacingAndGlyphs" textLength="63" x="385.3974" y="255.303">pfCloud_3</text><!--MD5=[19c1c1eddbe9c5cb81e8116c0afc111b]
reverse link GameAssets to SoundAudioClip--><path d="M250.26,183.24 C211.13,200.78 165.12,221.4 130.65,236.85 " fill="none" id="GameAssets&lt;-SoundAudioClip" style="stroke: #A80036; stroke-width: 1.0;"/><ellipse cx="256.7487" cy="180.3296" fill="#FFFFFF" rx="8" ry="8" style="stroke: #A80036; stroke-width: 1.0;"/><line style="stroke: #A80036; stroke-width: 1.0;" x1="249.4473" x2="264.05" y1="183.5992" y2="177.06"/><line style="stroke: #A80036; stroke-width: 1.0;" x1="253.479" x2="260.0183" y1="173.0283" y2="187.631"/><!--MD5=[916000c0f321a4c4d668e3341672be2a]
link SoundAudioClip to AudioClip--><path d="M79,285 C79,301 79,322.45 79,339.53 " fill="none" id="SoundAudioClip-&gt;AudioClip" style="stroke: #A80036; stroke-width: 1.0;"/><polygon fill="#A80036" points="79,344.68,83,335.68,79,339.68,75,335.68,79,344.68" style="stroke: #A80036; stroke-width: 1.0;"/><text fill="#000000" font-family="sans-serif" font-size="13" lengthAdjust="spacingAndGlyphs" textLength="58" x="13.9313" y="334.007">audioClip</text><!--MD5=[f0cedff9f5fa517e07025aaf2212a8e3]
@startuml
class GameAssets {
    + {static} GetInstance() : GameAssets
}
class SoundAudioClip {
}
MonoBehaviour <|- - GameAssets
GameAssets - -> "pipeHeadSprite" Sprite
GameAssets - -> "pfPipeHead" Transform
GameAssets - -> "pfPipeBody" Transform
GameAssets - -> "pfGround" Transform
GameAssets - -> "pfCloud_1" Transform
GameAssets - -> "pfCloud_2" Transform
GameAssets - -> "pfCloud_3" Transform
GameAssets +- - SoundAudioClip
SoundAudioClip - -> "audioClip" AudioClip
@enduml

PlantUML version 1.2020.02(Sun Mar 01 10:22:07 GMT 2020)
(GPL source distribution)
Java Runtime: OpenJDK Runtime Environment
JVM: OpenJDK 64-Bit Server VM
Java Version: 11.0.9+11-Ubuntu-0ubuntu1
Operating System: Linux
Default Encoding: ANSI_X3.4-1968
Language: en
Country: US
--></g></svg>