<?xml version="1.0" encoding="UTF-8" standalone="no"?><svg xmlns="http://www.w3.org/2000/svg" xmlns:xlink="http://www.w3.org/1999/xlink" contentScriptType="application/ecmascript" contentStyleType="text/css" height="245px" preserveAspectRatio="none" style="width:186px;height:245px;" version="1.1" viewBox="0 0 186 245" width="186px" zoomAndPan="magnify"><defs><filter height="300%" id="f2wnsgaied931" width="300%" x="-1" y="-1"><feGaussianBlur result="blurOut" stdDeviation="2.0"/><feColorMatrix in="blurOut" result="blurOut2" type="matrix" values="0 0 0 0 0 0 0 0 0 0 0 0 0 0 0 0 0 0 .4 0"/><feOffset dx="4.0" dy="4.0" in="blurOut2" result="blurOut3"/><feBlend in="SourceGraphic" in2="blurOut3" mode="normal"/></filter></defs><g><!--MD5=[8d729038c48ea67d1bfca0b0b8d717df]
class Loader--><rect fill="#FEFECE" filter="url(#f2wnsgaied931)" height="79.5469" id="Loader" style="stroke: #A80036; stroke-width: 1.5;" width="169" x="6" y="8"/><ellipse cx="64.25" cy="26.9688" fill="#ADD1B2" rx="11" ry="11" style="stroke: #A80036; stroke-width: 1.0;"/><path d="M67.2188,32.6094 Q66.6406,32.9063 66,33.0469 Q65.3594,33.2031 64.6563,33.2031 Q62.1563,33.2031 60.8281,31.5625 Q59.5156,29.9063 59.5156,26.7813 Q59.5156,23.6563 60.8281,22 Q62.1563,20.3438 64.6563,20.3438 Q65.3594,20.3438 66,20.5 Q66.6563,20.6563 67.2188,20.9531 L67.2188,23.6719 Q66.5938,23.0938 66,22.8281 Q65.4063,22.5469 64.7813,22.5469 Q63.4375,22.5469 62.75,23.625 Q62.0625,24.6875 62.0625,26.7813 Q62.0625,28.875 62.75,29.9531 Q63.4375,31.0156 64.7813,31.0156 Q65.4063,31.0156 66,30.75 Q66.5938,30.4688 67.2188,29.8906 L67.2188,32.6094 Z "/><text fill="#000000" font-family="sans-serif" font-size="12" font-style="italic" lengthAdjust="spacingAndGlyphs" textLength="48" x="82.75" y="24.1387">«static»</text><text fill="#000000" font-family="sans-serif" font-size="12" lengthAdjust="spacingAndGlyphs" textLength="43" x="85.25" y="38.1074">Loader</text><line style="stroke: #A80036; stroke-width: 1.5;" x1="7" x2="174" y1="45.9375" y2="45.9375"/><line style="stroke: #A80036; stroke-width: 1.5;" x1="7" x2="174" y1="53.9375" y2="53.9375"/><ellipse cx="17" cy="64.9375" fill="#84BE84" rx="3" ry="3" style="stroke: #038048; stroke-width: 1.0;"/><text fill="#000000" font-family="sans-serif" font-size="11" lengthAdjust="spacingAndGlyphs" text-decoration="underline" textLength="143" x="26" y="68.1479">Load(scene:Scene) : void</text><ellipse cx="17" cy="77.7422" fill="#84BE84" rx="3" ry="3" style="stroke: #038048; stroke-width: 1.0;"/><text fill="#000000" font-family="sans-serif" font-size="11" lengthAdjust="spacingAndGlyphs" text-decoration="underline" textLength="142" x="26" y="80.9526">LoadTargetScene() : void</text><!--MD5=[e4faacc5b8aef66b11ab0c816bbbc7f8]
class Scene--><rect fill="#FEFECE" filter="url(#f2wnsgaied931)" height="86.4141" id="Scene" style="stroke: #A80036; stroke-width: 1.5;" width="85" x="48" y="148"/><ellipse cx="69.3" cy="164" fill="#EB937F" rx="11" ry="11" style="stroke: #A80036; stroke-width: 1.0;"/><path d="M73.4094,170 L65.6906,170 L65.6906,157.6094 L73.4094,157.6094 L73.4094,159.7656 L68.1438,159.7656 L68.1438,162.4375 L72.9094,162.4375 L72.9094,164.5938 L68.1438,164.5938 L68.1438,167.8438 L73.4094,167.8438 L73.4094,170 Z "/><text fill="#000000" font-family="sans-serif" font-size="12" lengthAdjust="spacingAndGlyphs" textLength="39" x="84.7" y="168.1543">Scene</text><line style="stroke: #A80036; stroke-width: 1.5;" x1="49" x2="132" y1="180" y2="180"/><text fill="#000000" font-family="sans-serif" font-size="11" lengthAdjust="spacingAndGlyphs" textLength="73" x="54" y="194.2104">GameScene,</text><text fill="#000000" font-family="sans-serif" font-size="11" lengthAdjust="spacingAndGlyphs" textLength="48" x="54" y="207.0151">Loading,</text><text fill="#000000" font-family="sans-serif" font-size="11" lengthAdjust="spacingAndGlyphs" textLength="60" x="54" y="219.8198">MainMenu,</text><line style="stroke: #A80036; stroke-width: 1.5;" x1="49" x2="132" y1="226.4141" y2="226.4141"/><!--MD5=[28ee1305e7234b92fc21be30f33f3417]
reverse link Loader to Scene--><path d="M90.5,103.72 C90.5,118.42 90.5,134.08 90.5,147.98 " fill="none" id="Loader&lt;-Scene" style="stroke: #A80036; stroke-width: 1.0;"/><ellipse cx="90.5" cy="96.28" fill="#FFFFFF" rx="8" ry="8" style="stroke: #A80036; stroke-width: 1.0;"/><line style="stroke: #A80036; stroke-width: 1.0;" x1="90.5" x2="90.5" y1="104.28" y2="88.28"/><line style="stroke: #A80036; stroke-width: 1.0;" x1="82.5" x2="98.5" y1="96.28" y2="96.28"/><!--MD5=[7a77bd829c8fb49ad88114e3cee1bd8f]
@startuml
class Loader <<static>> {
    + {static} Load(scene:Scene) : void
    + {static} LoadTargetScene() : void
}
enum Scene {
    GameScene,
    Loading,
    MainMenu,
}
Loader +- - Scene
@enduml

PlantUML version 1.2020.02(Sun Mar 01 10:22:07 GMT 2020)
(GPL source distribution)
Java Runtime: OpenJDK Runtime Environment
JVM: OpenJDK 64-Bit Server VM
Java Version: 11.0.9+11-Ubuntu-0ubuntu1
Operating System: Linux
Default Encoding: ANSI_X3.4-1968
Language: en
Country: US
--></g></svg>