<?xml version="1.0" encoding="UTF-8" standalone="no"?><svg xmlns="http://www.w3.org/2000/svg" xmlns:xlink="http://www.w3.org/1999/xlink" contentScriptType="application/ecmascript" contentStyleType="text/css" height="123px" preserveAspectRatio="none" style="width:256px;height:123px;" version="1.1" viewBox="0 0 256 123" width="256px" zoomAndPan="magnify"><defs><filter height="300%" id="fjmvsj85h53fc" width="300%" x="-1" y="-1"><feGaussianBlur result="blurOut" stdDeviation="2.0"/><feColorMatrix in="blurOut" result="blurOut2" type="matrix" values="0 0 0 0 0 0 0 0 0 0 0 0 0 0 0 0 0 0 .4 0"/><feOffset dx="4.0" dy="4.0" in="blurOut2" result="blurOut3"/><feBlend in="SourceGraphic" in2="blurOut3" mode="normal"/></filter></defs><g><!--MD5=[107af66394bf1ebaa045812c9c475148]
class Score--><rect fill="#FEFECE" filter="url(#fjmvsj85h53fc)" height="105.1563" id="Score" style="stroke: #A80036; stroke-width: 1.5;" width="238" x="7" y="7"/><ellipse cx="99.75" cy="25.9688" fill="#ADD1B2" rx="11" ry="11" style="stroke: #A80036; stroke-width: 1.0;"/><path d="M102.7188,31.6094 Q102.1406,31.9063 101.5,32.0469 Q100.8594,32.2031 100.1563,32.2031 Q97.6563,32.2031 96.3281,30.5625 Q95.0156,28.9063 95.0156,25.7813 Q95.0156,22.6563 96.3281,21 Q97.6563,19.3438 100.1563,19.3438 Q100.8594,19.3438 101.5,19.5 Q102.1563,19.6563 102.7188,19.9531 L102.7188,22.6719 Q102.0938,22.0938 101.5,21.8281 Q100.9063,21.5469 100.2813,21.5469 Q98.9375,21.5469 98.25,22.625 Q97.5625,23.6875 97.5625,25.7813 Q97.5625,27.875 98.25,28.9531 Q98.9375,30.0156 100.2813,30.0156 Q100.9063,30.0156 101.5,29.75 Q102.0938,29.4688 102.7188,28.8906 L102.7188,31.6094 Z "/><text fill="#000000" font-family="sans-serif" font-size="12" font-style="italic" lengthAdjust="spacingAndGlyphs" textLength="48" x="118.25" y="23.1387">«static»</text><text fill="#000000" font-family="sans-serif" font-size="12" lengthAdjust="spacingAndGlyphs" textLength="36" x="124.25" y="37.1074">Score</text><line style="stroke: #A80036; stroke-width: 1.5;" x1="8" x2="244" y1="44.9375" y2="44.9375"/><line style="stroke: #A80036; stroke-width: 1.5;" x1="8" x2="244" y1="52.9375" y2="52.9375"/><ellipse cx="18" cy="63.9375" fill="#84BE84" rx="3" ry="3" style="stroke: #038048; stroke-width: 1.0;"/><text fill="#000000" font-family="sans-serif" font-size="11" lengthAdjust="spacingAndGlyphs" text-decoration="underline" textLength="71" x="27" y="67.1479">Start() : void</text><ellipse cx="18" cy="76.7422" fill="#84BE84" rx="3" ry="3" style="stroke: #038048; stroke-width: 1.0;"/><text fill="#000000" font-family="sans-serif" font-size="11" lengthAdjust="spacingAndGlyphs" text-decoration="underline" textLength="111" x="27" y="79.9526">GetHighscore() : int</text><ellipse cx="18" cy="89.5469" fill="#84BE84" rx="3" ry="3" style="stroke: #038048; stroke-width: 1.0;"/><text fill="#000000" font-family="sans-serif" font-size="11" lengthAdjust="spacingAndGlyphs" text-decoration="underline" textLength="212" x="27" y="92.7573">TrySetNewHighscore(score:int) : bool</text><ellipse cx="18" cy="102.3516" fill="#84BE84" rx="3" ry="3" style="stroke: #038048; stroke-width: 1.0;"/><text fill="#000000" font-family="sans-serif" font-size="11" lengthAdjust="spacingAndGlyphs" text-decoration="underline" textLength="132" x="27" y="105.562">ResetHighscore() : void</text><!--MD5=[35358443e24477ba708c9d626923e898]
@startuml
class Score <<static>> {
    + {static} Start() : void
    + {static} GetHighscore() : int
    + {static} TrySetNewHighscore(score:int) : bool
    + {static} ResetHighscore() : void
}
@enduml

PlantUML version 1.2020.02(Sun Mar 01 10:22:07 GMT 2020)
(GPL source distribution)
Java Runtime: OpenJDK Runtime Environment
JVM: OpenJDK 64-Bit Server VM
Java Version: 11.0.9+11-Ubuntu-0ubuntu1
Operating System: Linux
Default Encoding: ANSI_X3.4-1968
Language: en
Country: US
--></g></svg>