<?xml version="1.0" encoding="UTF-8" standalone="no"?><svg xmlns="http://www.w3.org/2000/svg" xmlns:xlink="http://www.w3.org/1999/xlink" contentScriptType="application/ecmascript" contentStyleType="text/css" height="360px" preserveAspectRatio="none" style="width:334px;height:360px;" version="1.1" viewBox="0 0 334 360" width="334px" zoomAndPan="magnify"><defs><filter height="300%" id="f1nfoo3kman228" width="300%" x="-1" y="-1"><feGaussianBlur result="blurOut" stdDeviation="2.0"/><feColorMatrix in="blurOut" result="blurOut2" type="matrix" values="0 0 0 0 0 0 0 0 0 0 0 0 0 0 0 0 0 0 .4 0"/><feOffset dx="4.0" dy="4.0" in="blurOut2" result="blurOut3"/><feBlend in="SourceGraphic" in2="blurOut3" mode="normal"/></filter></defs><g><!--MD5=[29eaa8a5e72657402b32c9b400698f6d]
class SpriteAnimator--><rect fill="#FEFECE" filter="url(#f1nfoo3kman228)" height="124.8281" id="SpriteAnimator" style="stroke: #A80036; stroke-width: 1.5;" width="317" x="6" y="116"/><ellipse cx="113.75" cy="132" fill="#ADD1B2" rx="11" ry="11" style="stroke: #A80036; stroke-width: 1.0;"/><path d="M116.7188,137.6406 Q116.1406,137.9375 115.5,138.0781 Q114.8594,138.2344 114.1563,138.2344 Q111.6563,138.2344 110.3281,136.5938 Q109.0156,134.9375 109.0156,131.8125 Q109.0156,128.6875 110.3281,127.0313 Q111.6563,125.375 114.1563,125.375 Q114.8594,125.375 115.5,125.5313 Q116.1563,125.6875 116.7188,125.9844 L116.7188,128.7031 Q116.0938,128.125 115.5,127.8594 Q114.9063,127.5781 114.2813,127.5781 Q112.9375,127.5781 112.25,128.6563 Q111.5625,129.7188 111.5625,131.8125 Q111.5625,133.9063 112.25,134.9844 Q112.9375,136.0469 114.2813,136.0469 Q114.9063,136.0469 115.5,135.7813 Q116.0938,135.5 116.7188,134.9219 L116.7188,137.6406 Z "/><text fill="#000000" font-family="sans-serif" font-size="12" lengthAdjust="spacingAndGlyphs" textLength="93" x="134.25" y="136.1543">SpriteAnimator</text><line style="stroke: #A80036; stroke-width: 1.5;" x1="7" x2="322" y1="148" y2="148"/><ellipse cx="17" cy="159" fill="none" rx="3" ry="3" style="stroke: #038048; stroke-width: 1.0;"/><text fill="#000000" font-family="sans-serif" font-size="11" lengthAdjust="spacingAndGlyphs" textLength="159" x="26" y="162.2104">framesPerSecond : int = 30</text><ellipse cx="17" cy="171.8047" fill="none" rx="3" ry="3" style="stroke: #038048; stroke-width: 1.0;"/><text fill="#000000" font-family="sans-serif" font-size="11" lengthAdjust="spacingAndGlyphs" textLength="100" x="26" y="175.0151">loop : bool = true</text><ellipse cx="17" cy="184.6094" fill="none" rx="3" ry="3" style="stroke: #038048; stroke-width: 1.0;"/><text fill="#000000" font-family="sans-serif" font-size="11" lengthAdjust="spacingAndGlyphs" textLength="166" x="26" y="187.8198">useUnscaledDeltaTime : bool</text><line style="stroke: #A80036; stroke-width: 1.5;" x1="7" x2="322" y1="194.4141" y2="194.4141"/><ellipse cx="17" cy="205.4141" fill="#84BE84" rx="3" ry="3" style="stroke: #038048; stroke-width: 1.0;"/><text fill="#000000" font-family="sans-serif" font-size="11" lengthAdjust="spacingAndGlyphs" textLength="291" x="26" y="208.6245">Setup(frames:Sprite[], framesPerSecond:int) : void</text><ellipse cx="17" cy="218.2188" fill="#84BE84" rx="3" ry="3" style="stroke: #038048; stroke-width: 1.0;"/><text fill="#000000" font-family="sans-serif" font-size="11" lengthAdjust="spacingAndGlyphs" textLength="198" x="26" y="221.4292">SetTimerMax(timerMax:float) : void</text><ellipse cx="17" cy="231.0234" fill="#84BE84" rx="3" ry="3" style="stroke: #038048; stroke-width: 1.0;"/><text fill="#000000" font-family="sans-serif" font-size="11" lengthAdjust="spacingAndGlyphs" textLength="94" x="26" y="234.2339">PlayStart() : void</text><!--MD5=[83b3cf3d23d77c6f1e1b5291a241bc2a]
class MonoBehaviour--><rect fill="#FEFECE" filter="url(#f1nfoo3kman228)" height="48" id="MonoBehaviour" style="stroke: #A80036; stroke-width: 1.5;" width="128" x="100.5" y="8"/><ellipse cx="115.5" cy="24" fill="#ADD1B2" rx="11" ry="11" style="stroke: #A80036; stroke-width: 1.0;"/><path d="M118.4688,29.6406 Q117.8906,29.9375 117.25,30.0781 Q116.6094,30.2344 115.9063,30.2344 Q113.4063,30.2344 112.0781,28.5938 Q110.7656,26.9375 110.7656,23.8125 Q110.7656,20.6875 112.0781,19.0313 Q113.4063,17.375 115.9063,17.375 Q116.6094,17.375 117.25,17.5313 Q117.9063,17.6875 118.4688,17.9844 L118.4688,20.7031 Q117.8438,20.125 117.25,19.8594 Q116.6563,19.5781 116.0313,19.5781 Q114.6875,19.5781 114,20.6563 Q113.3125,21.7188 113.3125,23.8125 Q113.3125,25.9063 114,26.9844 Q114.6875,28.0469 116.0313,28.0469 Q116.6563,28.0469 117.25,27.7813 Q117.8438,27.5 118.4688,26.9219 L118.4688,29.6406 Z "/><text fill="#000000" font-family="sans-serif" font-size="12" lengthAdjust="spacingAndGlyphs" textLength="96" x="129.5" y="28.1543">MonoBehaviour</text><line style="stroke: #A80036; stroke-width: 1.5;" x1="101.5" x2="227.5" y1="40" y2="40"/><line style="stroke: #A80036; stroke-width: 1.5;" x1="101.5" x2="227.5" y1="48" y2="48"/><!--MD5=[47a126cdde730f5e01fdbfa8c8ee1bce]
class OnLoopDel--><rect fill="#FEFECE" filter="url(#f1nfoo3kman228)" height="48" id="OnLoopDel" style="stroke: #A80036; stroke-width: 1.5;" width="99" x="115" y="301"/><ellipse cx="130" cy="317" fill="#ADD1B2" rx="11" ry="11" style="stroke: #A80036; stroke-width: 1.0;"/><path d="M132.9688,322.6406 Q132.3906,322.9375 131.75,323.0781 Q131.1094,323.2344 130.4063,323.2344 Q127.9063,323.2344 126.5781,321.5938 Q125.2656,319.9375 125.2656,316.8125 Q125.2656,313.6875 126.5781,312.0313 Q127.9063,310.375 130.4063,310.375 Q131.1094,310.375 131.75,310.5313 Q132.4063,310.6875 132.9688,310.9844 L132.9688,313.7031 Q132.3438,313.125 131.75,312.8594 Q131.1563,312.5781 130.5313,312.5781 Q129.1875,312.5781 128.5,313.6563 Q127.8125,314.7188 127.8125,316.8125 Q127.8125,318.9063 128.5,319.9844 Q129.1875,321.0469 130.5313,321.0469 Q131.1563,321.0469 131.75,320.7813 Q132.3438,320.5 132.9688,319.9219 L132.9688,322.6406 Z "/><text fill="#000000" font-family="sans-serif" font-size="12" lengthAdjust="spacingAndGlyphs" textLength="67" x="144" y="321.1543">OnLoopDel</text><line style="stroke: #A80036; stroke-width: 1.5;" x1="116" x2="213" y1="333" y2="333"/><line style="stroke: #A80036; stroke-width: 1.5;" x1="116" x2="213" y1="341" y2="341"/><!--MD5=[adb04f7a4963f111b8e3942dc4603775]
reverse link MonoBehaviour to SpriteAnimator--><path d="M164.5,76.67 C164.5,89.05 164.5,102.77 164.5,115.99 " fill="none" id="MonoBehaviour&lt;-SpriteAnimator" style="stroke: #A80036; stroke-width: 1.0;"/><polygon fill="none" points="157.5,76.22,164.5,56.22,171.5,76.22,157.5,76.22" style="stroke: #A80036; stroke-width: 1.0;"/><!--MD5=[1c25fb06ef5372c30fd78b59d6e850c5]
link SpriteAnimator to OnLoopDel--><path d="M164.5,241.2 C164.5,260.22 164.5,280.24 164.5,295.83 " fill="none" id="SpriteAnimator-&gt;OnLoopDel" style="stroke: #A80036; stroke-width: 1.0;"/><polygon fill="#A80036" points="164.5,300.94,168.5,291.94,164.5,295.94,160.5,291.94,164.5,300.94" style="stroke: #A80036; stroke-width: 1.0;"/><text fill="#000000" font-family="sans-serif" font-size="13" lengthAdjust="spacingAndGlyphs" textLength="47" x="111.4781" y="289.9367">onLoop</text><!--MD5=[0aa560d59ff210eef05adc64f382905c]
@startuml
class SpriteAnimator {
    + framesPerSecond : int = 30
    + loop : bool = true
    + useUnscaledDeltaTime : bool
    + Setup(frames:Sprite[], framesPerSecond:int) : void
    + SetTimerMax(timerMax:float) : void
    + PlayStart() : void
}
MonoBehaviour <|- - SpriteAnimator
SpriteAnimator - -> "onLoop" OnLoopDel
@enduml

PlantUML version 1.2020.02(Sun Mar 01 10:22:07 GMT 2020)
(GPL source distribution)
Java Runtime: OpenJDK Runtime Environment
JVM: OpenJDK 64-Bit Server VM
Java Version: 11.0.9+11-Ubuntu-0ubuntu1
Operating System: Linux
Default Encoding: ANSI_X3.4-1968
Language: en
Country: US
--></g></svg>