<?xml version="1.0" encoding="UTF-8" standalone="no"?><svg xmlns="http://www.w3.org/2000/svg" xmlns:xlink="http://www.w3.org/1999/xlink" contentScriptType="application/ecmascript" contentStyleType="text/css" height="385px" preserveAspectRatio="none" style="width:775px;height:385px;" version="1.1" viewBox="0 0 775 385" width="775px" zoomAndPan="magnify"><defs><filter height="300%" id="f174gq4ddrd5ie" width="300%" x="-1" y="-1"><feGaussianBlur result="blurOut" stdDeviation="2.0"/><feColorMatrix in="blurOut" result="blurOut2" type="matrix" values="0 0 0 0 0 0 0 0 0 0 0 0 0 0 0 0 0 0 .4 0"/><feOffset dx="4.0" dy="4.0" in="blurOut2" result="blurOut3"/><feBlend in="SourceGraphic" in2="blurOut3" mode="normal"/></filter></defs><g><!--MD5=[eedde156c9dded963040b22578af45fa]
class Level--><rect fill="#FEFECE" filter="url(#f174gq4ddrd5ie)" height="86.4141" id="Level" style="stroke: #A80036; stroke-width: 1.5;" width="186" x="81" y="116"/><ellipse cx="154.25" cy="132" fill="#ADD1B2" rx="11" ry="11" style="stroke: #A80036; stroke-width: 1.0;"/><path d="M157.2188,137.6406 Q156.6406,137.9375 156,138.0781 Q155.3594,138.2344 154.6563,138.2344 Q152.1563,138.2344 150.8281,136.5938 Q149.5156,134.9375 149.5156,131.8125 Q149.5156,128.6875 150.8281,127.0313 Q152.1563,125.375 154.6563,125.375 Q155.3594,125.375 156,125.5313 Q156.6563,125.6875 157.2188,125.9844 L157.2188,128.7031 Q156.5938,128.125 156,127.8594 Q155.4063,127.5781 154.7813,127.5781 Q153.4375,127.5781 152.75,128.6563 Q152.0625,129.7188 152.0625,131.8125 Q152.0625,133.9063 152.75,134.9844 Q153.4375,136.0469 154.7813,136.0469 Q155.4063,136.0469 156,135.7813 Q156.5938,135.5 157.2188,134.9219 L157.2188,137.6406 Z "/><text fill="#000000" font-family="sans-serif" font-size="12" lengthAdjust="spacingAndGlyphs" textLength="31" x="174.75" y="136.1543">Level</text><line style="stroke: #A80036; stroke-width: 1.5;" x1="82" x2="266" y1="148" y2="148"/><line style="stroke: #A80036; stroke-width: 1.5;" x1="82" x2="266" y1="156" y2="156"/><ellipse cx="92" cy="167" fill="#84BE84" rx="3" ry="3" style="stroke: #038048; stroke-width: 1.0;"/><text fill="#000000" font-family="sans-serif" font-size="11" lengthAdjust="spacingAndGlyphs" text-decoration="underline" textLength="117" x="101" y="170.2104">GetInstance() : Level</text><ellipse cx="92" cy="179.8047" fill="#84BE84" rx="3" ry="3" style="stroke: #038048; stroke-width: 1.0;"/><text fill="#000000" font-family="sans-serif" font-size="11" lengthAdjust="spacingAndGlyphs" textLength="137" x="101" y="183.0151">GetPipesSpawned() : int</text><ellipse cx="92" cy="192.6094" fill="#84BE84" rx="3" ry="3" style="stroke: #038048; stroke-width: 1.0;"/><text fill="#000000" font-family="sans-serif" font-size="11" lengthAdjust="spacingAndGlyphs" textLength="160" x="101" y="195.8198">GetPipesPassedCount() : int</text><!--MD5=[333d89b52782613fb9adcb244b1d0895]
class Difficulty--><rect fill="#FEFECE" filter="url(#f174gq4ddrd5ie)" height="99.2188" id="Difficulty" style="stroke: #A80036; stroke-width: 1.5;" width="84" x="6" y="268.5"/><ellipse cx="21" cy="284.5" fill="#EB937F" rx="11" ry="11" style="stroke: #A80036; stroke-width: 1.0;"/><path d="M25.1094,290.5 L17.3906,290.5 L17.3906,278.1094 L25.1094,278.1094 L25.1094,280.2656 L19.8438,280.2656 L19.8438,282.9375 L24.6094,282.9375 L24.6094,285.0938 L19.8438,285.0938 L19.8438,288.3438 L25.1094,288.3438 L25.1094,290.5 Z "/><text fill="#000000" font-family="sans-serif" font-size="12" lengthAdjust="spacingAndGlyphs" textLength="52" x="35" y="288.6543">Difficulty</text><line style="stroke: #A80036; stroke-width: 1.5;" x1="7" x2="89" y1="300.5" y2="300.5"/><text fill="#000000" font-family="sans-serif" font-size="11" lengthAdjust="spacingAndGlyphs" textLength="31" x="12" y="314.7104">Easy,</text><text fill="#000000" font-family="sans-serif" font-size="11" lengthAdjust="spacingAndGlyphs" textLength="48" x="12" y="327.5151">Medium,</text><text fill="#000000" font-family="sans-serif" font-size="11" lengthAdjust="spacingAndGlyphs" textLength="31" x="12" y="340.3198">Hard,</text><text fill="#000000" font-family="sans-serif" font-size="11" lengthAdjust="spacingAndGlyphs" textLength="66" x="12" y="353.1245">Impossible,</text><line style="stroke: #A80036; stroke-width: 1.5;" x1="7" x2="89" y1="359.7188" y2="359.7188"/><!--MD5=[60d6b92408f98aed8df94d5c6e04aa63]
class State--><rect fill="#FEFECE" filter="url(#f174gq4ddrd5ie)" height="86.4141" id="State" style="stroke: #A80036; stroke-width: 1.5;" width="98" x="125" y="275"/><ellipse cx="154.4" cy="291" fill="#EB937F" rx="11" ry="11" style="stroke: #A80036; stroke-width: 1.0;"/><path d="M158.5094,297 L150.7906,297 L150.7906,284.6094 L158.5094,284.6094 L158.5094,286.7656 L153.2438,286.7656 L153.2438,289.4375 L158.0094,289.4375 L158.0094,291.5938 L153.2438,291.5938 L153.2438,294.8438 L158.5094,294.8438 L158.5094,297 Z "/><text fill="#000000" font-family="sans-serif" font-size="12" lengthAdjust="spacingAndGlyphs" textLength="34" x="171.6" y="295.1543">State</text><line style="stroke: #A80036; stroke-width: 1.5;" x1="126" x2="222" y1="307" y2="307"/><text fill="#000000" font-family="sans-serif" font-size="11" lengthAdjust="spacingAndGlyphs" textLength="86" x="131" y="321.2104">WaitingToStart,</text><text fill="#000000" font-family="sans-serif" font-size="11" lengthAdjust="spacingAndGlyphs" textLength="44" x="131" y="334.0151">Playing,</text><text fill="#000000" font-family="sans-serif" font-size="11" lengthAdjust="spacingAndGlyphs" textLength="56" x="131" y="346.8198">BirdDead,</text><line style="stroke: #A80036; stroke-width: 1.5;" x1="126" x2="222" y1="353.4141" y2="353.4141"/><!--MD5=[4dfa3bfde5407297cdf87f3e284398fb]
class Pipe--><rect fill="#FEFECE" filter="url(#f174gq4ddrd5ie)" height="112.0234" id="Pipe" style="stroke: #A80036; stroke-width: 1.5;" width="506" x="258" y="262"/><ellipse cx="493.25" cy="278" fill="#ADD1B2" rx="11" ry="11" style="stroke: #A80036; stroke-width: 1.0;"/><path d="M496.2188,283.6406 Q495.6406,283.9375 495,284.0781 Q494.3594,284.2344 493.6563,284.2344 Q491.1563,284.2344 489.8281,282.5938 Q488.5156,280.9375 488.5156,277.8125 Q488.5156,274.6875 489.8281,273.0313 Q491.1563,271.375 493.6563,271.375 Q494.3594,271.375 495,271.5313 Q495.6563,271.6875 496.2188,271.9844 L496.2188,274.7031 Q495.5938,274.125 495,273.8594 Q494.4063,273.5781 493.7813,273.5781 Q492.4375,273.5781 491.75,274.6563 Q491.0625,275.7188 491.0625,277.8125 Q491.0625,279.9063 491.75,280.9844 Q492.4375,282.0469 493.7813,282.0469 Q494.4063,282.0469 495,281.7813 Q495.5938,281.5 496.2188,280.9219 L496.2188,283.6406 Z "/><text fill="#000000" font-family="sans-serif" font-size="12" lengthAdjust="spacingAndGlyphs" textLength="27" x="513.75" y="282.1543">Pipe</text><line style="stroke: #A80036; stroke-width: 1.5;" x1="259" x2="763" y1="294" y2="294"/><line style="stroke: #A80036; stroke-width: 1.5;" x1="259" x2="763" y1="302" y2="302"/><ellipse cx="269" cy="313" fill="#84BE84" rx="3" ry="3" style="stroke: #038048; stroke-width: 1.0;"/><text fill="#000000" font-family="sans-serif" font-size="11" lengthAdjust="spacingAndGlyphs" textLength="480" x="278" y="316.2104">Pipe(pipeHeadTransform:Transform, pipeBodyTransform:Transform, isBottom:bool)</text><ellipse cx="269" cy="325.8047" fill="#84BE84" rx="3" ry="3" style="stroke: #038048; stroke-width: 1.0;"/><text fill="#000000" font-family="sans-serif" font-size="11" lengthAdjust="spacingAndGlyphs" textLength="72" x="278" y="329.0151">Move() : void</text><ellipse cx="269" cy="338.6094" fill="#84BE84" rx="3" ry="3" style="stroke: #038048; stroke-width: 1.0;"/><text fill="#000000" font-family="sans-serif" font-size="11" lengthAdjust="spacingAndGlyphs" textLength="117" x="278" y="341.8198">GetXPosition() : float</text><ellipse cx="269" cy="351.4141" fill="#84BE84" rx="3" ry="3" style="stroke: #038048; stroke-width: 1.0;"/><text fill="#000000" font-family="sans-serif" font-size="11" lengthAdjust="spacingAndGlyphs" textLength="95" x="278" y="354.6245">IsBottom() : bool</text><ellipse cx="269" cy="364.2188" fill="#84BE84" rx="3" ry="3" style="stroke: #038048; stroke-width: 1.0;"/><text fill="#000000" font-family="sans-serif" font-size="11" lengthAdjust="spacingAndGlyphs" textLength="109" x="278" y="367.4292">DestroySelf() : void</text><!--MD5=[83b3cf3d23d77c6f1e1b5291a241bc2a]
class MonoBehaviour--><rect fill="#FEFECE" filter="url(#f174gq4ddrd5ie)" height="48" id="MonoBehaviour" style="stroke: #A80036; stroke-width: 1.5;" width="128" x="110" y="8"/><ellipse cx="125" cy="24" fill="#ADD1B2" rx="11" ry="11" style="stroke: #A80036; stroke-width: 1.0;"/><path d="M127.9688,29.6406 Q127.3906,29.9375 126.75,30.0781 Q126.1094,30.2344 125.4063,30.2344 Q122.9063,30.2344 121.5781,28.5938 Q120.2656,26.9375 120.2656,23.8125 Q120.2656,20.6875 121.5781,19.0313 Q122.9063,17.375 125.4063,17.375 Q126.1094,17.375 126.75,17.5313 Q127.4063,17.6875 127.9688,17.9844 L127.9688,20.7031 Q127.3438,20.125 126.75,19.8594 Q126.1563,19.5781 125.5313,19.5781 Q124.1875,19.5781 123.5,20.6563 Q122.8125,21.7188 122.8125,23.8125 Q122.8125,25.9063 123.5,26.9844 Q124.1875,28.0469 125.5313,28.0469 Q126.1563,28.0469 126.75,27.7813 Q127.3438,27.5 127.9688,26.9219 L127.9688,29.6406 Z "/><text fill="#000000" font-family="sans-serif" font-size="12" lengthAdjust="spacingAndGlyphs" textLength="96" x="139" y="28.1543">MonoBehaviour</text><line style="stroke: #A80036; stroke-width: 1.5;" x1="111" x2="237" y1="40" y2="40"/><line style="stroke: #A80036; stroke-width: 1.5;" x1="111" x2="237" y1="48" y2="48"/><!--MD5=[b01f146bd3c80e9fcb4f51b1c428cb39]
reverse link MonoBehaviour to Level--><path d="M174,76.27 C174,89.12 174,103.17 174,115.94 " fill="none" id="MonoBehaviour&lt;-Level" style="stroke: #A80036; stroke-width: 1.0;"/><polygon fill="none" points="167,76.22,174,56.22,181,76.22,167,76.22" style="stroke: #A80036; stroke-width: 1.0;"/><!--MD5=[8c113a27678f3ab5a84957ad5db16bd8]
reverse link Level to Difficulty--><path d="M130.69,213.96 C116.51,231.64 100.84,251.16 86.99,268.41 " fill="none" id="Level&lt;-Difficulty" style="stroke: #A80036; stroke-width: 1.0;"/><ellipse cx="135.2241" cy="208.3103" fill="#FFFFFF" rx="8" ry="8" style="stroke: #A80036; stroke-width: 1.0;"/><line style="stroke: #A80036; stroke-width: 1.0;" x1="130.2182" x2="140.23" y1="214.5505" y2="202.07"/><line style="stroke: #A80036; stroke-width: 1.0;" x1="128.9838" x2="141.4643" y1="203.3043" y2="213.3162"/><!--MD5=[d7bdfe17af22403f54210af8e5c66d5a]
reverse link Level to State--><path d="M174,217.2 C174,236.25 174,257.11 174,274.81 " fill="none" id="Level&lt;-State" style="stroke: #A80036; stroke-width: 1.0;"/><ellipse cx="174" cy="210.07" fill="#FFFFFF" rx="8" ry="8" style="stroke: #A80036; stroke-width: 1.0;"/><line style="stroke: #A80036; stroke-width: 1.0;" x1="174" x2="174" y1="218.07" y2="202.07"/><line style="stroke: #A80036; stroke-width: 1.0;" x1="166" x2="182" y1="210.07" y2="210.07"/><!--MD5=[8e540200906509f71ac40329eda3111a]
reverse link Level to Pipe--><path d="M277.99,208.45 C314.34,225.38 355.41,244.52 392.83,261.95 " fill="none" id="Level&lt;-Pipe" style="stroke: #A80036; stroke-width: 1.0;"/><ellipse cx="271.5632" cy="205.4452" fill="#FFFFFF" rx="8" ry="8" style="stroke: #A80036; stroke-width: 1.0;"/><line style="stroke: #A80036; stroke-width: 1.0;" x1="278.8163" x2="264.31" y1="208.8203" y2="202.07"/><line style="stroke: #A80036; stroke-width: 1.0;" x1="268.188" x2="274.9383" y1="212.6983" y2="198.192"/><!--MD5=[021d3d882a328c796559e640af593cc2]
@startuml
class Level {
    + {static} GetInstance() : Level
    + GetPipesSpawned() : int
    + GetPipesPassedCount() : int
}
enum Difficulty {
    Easy,
    Medium,
    Hard,
    Impossible,
}
enum State {
    WaitingToStart,
    Playing,
    BirdDead,
}
class Pipe {
    + Pipe(pipeHeadTransform:Transform, pipeBodyTransform:Transform, isBottom:bool)
    + Move() : void
    + GetXPosition() : float
    + IsBottom() : bool
    + DestroySelf() : void
}
MonoBehaviour <|- - Level
Level +- - Difficulty
Level +- - State
Level +- - Pipe
@enduml

PlantUML version 1.2020.02(Sun Mar 01 10:22:07 GMT 2020)
(GPL source distribution)
Java Runtime: OpenJDK Runtime Environment
JVM: OpenJDK 64-Bit Server VM
Java Version: 11.0.9+11-Ubuntu-0ubuntu1
Operating System: Linux
Default Encoding: ANSI_X3.4-1968
Language: en
Country: US
--></g></svg>