<?xml version="1.0" encoding="UTF-8" standalone="no"?><svg xmlns="http://www.w3.org/2000/svg" xmlns:xlink="http://www.w3.org/1999/xlink" contentScriptType="application/ecmascript" contentStyleType="text/css" height="271px" preserveAspectRatio="none" style="width:292px;height:271px;" version="1.1" viewBox="0 0 292 271" width="292px" zoomAndPan="magnify"><defs><filter height="300%" id="fo451jhstpns1" width="300%" x="-1" y="-1"><feGaussianBlur result="blurOut" stdDeviation="2.0"/><feColorMatrix in="blurOut" result="blurOut2" type="matrix" values="0 0 0 0 0 0 0 0 0 0 0 0 0 0 0 0 0 0 .4 0"/><feOffset dx="4.0" dy="4.0" in="blurOut2" result="blurOut3"/><feBlend in="SourceGraphic" in2="blurOut3" mode="normal"/></filter></defs><g><!--MD5=[3b66e3a12dd87bd1486b74e8ddc236cd]
class SoundManager--><rect fill="#FEFECE" filter="url(#fo451jhstpns1)" height="79.5469" id="SoundManager" style="stroke: #A80036; stroke-width: 1.5;" width="275" x="6" y="8"/><ellipse cx="91.75" cy="26.9688" fill="#ADD1B2" rx="11" ry="11" style="stroke: #A80036; stroke-width: 1.0;"/><path d="M94.7188,32.6094 Q94.1406,32.9063 93.5,33.0469 Q92.8594,33.2031 92.1563,33.2031 Q89.6563,33.2031 88.3281,31.5625 Q87.0156,29.9063 87.0156,26.7813 Q87.0156,23.6563 88.3281,22 Q89.6563,20.3438 92.1563,20.3438 Q92.8594,20.3438 93.5,20.5 Q94.1563,20.6563 94.7188,20.9531 L94.7188,23.6719 Q94.0938,23.0938 93.5,22.8281 Q92.9063,22.5469 92.2813,22.5469 Q90.9375,22.5469 90.25,23.625 Q89.5625,24.6875 89.5625,26.7813 Q89.5625,28.875 90.25,29.9531 Q90.9375,31.0156 92.2813,31.0156 Q92.9063,31.0156 93.5,30.75 Q94.0938,30.4688 94.7188,29.8906 L94.7188,32.6094 Z "/><text fill="#000000" font-family="sans-serif" font-size="12" font-style="italic" lengthAdjust="spacingAndGlyphs" textLength="48" x="135.75" y="24.1387">«static»</text><text fill="#000000" font-family="sans-serif" font-size="12" lengthAdjust="spacingAndGlyphs" textLength="95" x="112.25" y="38.1074">SoundManager</text><line style="stroke: #A80036; stroke-width: 1.5;" x1="7" x2="280" y1="45.9375" y2="45.9375"/><line style="stroke: #A80036; stroke-width: 1.5;" x1="7" x2="280" y1="53.9375" y2="53.9375"/><ellipse cx="17" cy="64.9375" fill="#84BE84" rx="3" ry="3" style="stroke: #038048; stroke-width: 1.0;"/><text fill="#000000" font-family="sans-serif" font-size="11" lengthAdjust="spacingAndGlyphs" text-decoration="underline" textLength="177" x="26" y="68.1479">PlaySound(sound:Sound) : void</text><ellipse cx="17" cy="77.7422" fill="#84BE84" rx="3" ry="3" style="stroke: #038048; stroke-width: 1.0;"/><text fill="#000000" font-family="sans-serif" font-size="11" lengthAdjust="spacingAndGlyphs" text-decoration="underline" textLength="249" x="26" y="80.9526">AddButtonSounds(buttonUI:Button_UI) : void</text><!--MD5=[b47f00dd0504bda501cad5ceb6604e40]
class Sound--><rect fill="#FEFECE" filter="url(#fo451jhstpns1)" height="112.0234" id="Sound" style="stroke: #A80036; stroke-width: 1.5;" width="80" x="103.5" y="148"/><ellipse cx="122.1" cy="164" fill="#EB937F" rx="11" ry="11" style="stroke: #A80036; stroke-width: 1.0;"/><path d="M126.2094,170 L118.4906,170 L118.4906,157.6094 L126.2094,157.6094 L126.2094,159.7656 L120.9438,159.7656 L120.9438,162.4375 L125.7094,162.4375 L125.7094,164.5938 L120.9438,164.5938 L120.9438,167.8438 L126.2094,167.8438 L126.2094,170 Z "/><text fill="#000000" font-family="sans-serif" font-size="12" lengthAdjust="spacingAndGlyphs" textLength="40" x="136.9" y="168.1543">Sound</text><line style="stroke: #A80036; stroke-width: 1.5;" x1="104.5" x2="182.5" y1="180" y2="180"/><text fill="#000000" font-family="sans-serif" font-size="11" lengthAdjust="spacingAndGlyphs" textLength="55" x="109.5" y="194.2104">BirdJump,</text><text fill="#000000" font-family="sans-serif" font-size="11" lengthAdjust="spacingAndGlyphs" textLength="37" x="109.5" y="207.0151">Score,</text><text fill="#000000" font-family="sans-serif" font-size="11" lengthAdjust="spacingAndGlyphs" textLength="31" x="109.5" y="219.8198">Lose,</text><text fill="#000000" font-family="sans-serif" font-size="11" lengthAdjust="spacingAndGlyphs" textLength="68" x="109.5" y="232.6245">ButtonOver,</text><text fill="#000000" font-family="sans-serif" font-size="11" lengthAdjust="spacingAndGlyphs" textLength="67" x="109.5" y="245.4292">ButtonClick,</text><line style="stroke: #A80036; stroke-width: 1.5;" x1="104.5" x2="182.5" y1="252.0234" y2="252.0234"/><!--MD5=[145443ac529cf0b7280a2d511cec779f]
reverse link SoundManager to Sound--><path d="M143.5,103.35 C143.5,117.77 143.5,133.37 143.5,147.83 " fill="none" id="SoundManager&lt;-Sound" style="stroke: #A80036; stroke-width: 1.0;"/><ellipse cx="143.5" cy="96.26" fill="#FFFFFF" rx="8" ry="8" style="stroke: #A80036; stroke-width: 1.0;"/><line style="stroke: #A80036; stroke-width: 1.0;" x1="143.5" x2="143.5" y1="104.26" y2="88.26"/><line style="stroke: #A80036; stroke-width: 1.0;" x1="135.5" x2="151.5" y1="96.26" y2="96.26"/><!--MD5=[05452b196ff3ec0423ef0c546c75929d]
@startuml
class SoundManager <<static>> {
    + {static} PlaySound(sound:Sound) : void
    + {static} AddButtonSounds(buttonUI:Button_UI) : void
}
enum Sound {
    BirdJump,
    Score,
    Lose,
    ButtonOver,
    ButtonClick,
}
SoundManager +- - Sound
@enduml

PlantUML version 1.2020.02(Sun Mar 01 10:22:07 GMT 2020)
(GPL source distribution)
Java Runtime: OpenJDK Runtime Environment
JVM: OpenJDK 64-Bit Server VM
Java Version: 11.0.9+11-Ubuntu-0ubuntu1
Operating System: Linux
Default Encoding: ANSI_X3.4-1968
Language: en
Country: US
--></g></svg>